<svg width="208" height="40" viewBox="0 0 208 40" fill="none" xmlns="http://www.w3.org/2000/svg">
<path d="M21.9761 31.9714V23.9163H15.3755V31.9714H10.3309L16.4532 38.3256C16.7455 38.6313 17.0932 38.8741 17.4763 39.0397C17.8594 39.2053 18.2703 39.2906 18.6853 39.2906C19.1003 39.2906 19.5112 39.2053 19.8943 39.0397C20.2774 38.8741 20.6251 38.6313 20.9174 38.3256L27.0333 31.9714H21.9761ZM7.03382 28.5495V11.2279L0.911516 17.5754C0.32726 18.194 0 19.0257 0 19.892C0 20.7582 0.32726 21.59 0.911516 22.2086L7.03382 28.5495ZM15.3755 7.79929V15.8611H21.9761V7.79929H27.0206L20.9047 1.46502C20.6124 1.15924 20.2647 0.916533 19.8816 0.750905C19.4985 0.585276 19.0876 0.5 18.6726 0.5C18.2576 0.5 17.8467 0.585276 17.4636 0.750905C17.0805 0.916533 16.7328 1.15924 16.4405 1.46502L10.3182 7.81253L15.3755 7.79929ZM36.4209 17.5754L30.305 11.2279V28.5495L36.4209 22.1954C36.7149 21.8936 36.9486 21.5345 37.1087 21.1389C37.2688 20.7432 37.3521 20.3186 37.3539 19.8895C37.3556 19.4603 37.2758 19.035 37.119 18.638C36.9622 18.2409 36.7315 17.8798 36.44 17.5754H36.4209Z" fill="#EC1F2B"/>
<path d="M50.1334 12.6606H56.3611L60.0266 23.5147H60.2401V12.6606H64.0124V26.8955H57.7846L54.1191 16.0414H53.9056V26.8955H50.1334V12.6606ZM73.786 27.109C72.3862 27.109 71.1169 26.7887 69.9782 26.1482C68.8394 25.4839 67.9378 24.5942 67.2735 23.4791C66.6092 22.3641 66.2771 21.1185 66.2771 19.7425C66.2771 18.3902 66.6092 17.1565 67.2735 16.0414C67.9378 14.9264 68.8394 14.0485 69.9782 13.408C71.1169 12.7674 72.3862 12.4471 73.786 12.4471C75.162 12.4471 76.4194 12.7674 77.5582 13.408C78.697 14.0485 79.5867 14.9264 80.2273 16.0414C80.8916 17.1565 81.2237 18.3902 81.2237 19.7425C81.2237 21.1185 80.8916 22.3641 80.2273 23.4791C79.5867 24.5942 78.697 25.4839 77.5582 26.1482C76.4194 26.7887 75.162 27.109 73.786 27.109ZM70.4052 19.7425C70.4052 20.7152 70.7255 21.5337 71.3661 22.198C72.0304 22.8623 72.837 23.1944 73.786 23.1944C74.7113 23.1944 75.4942 22.8623 76.1347 22.198C76.7753 21.5337 77.0956 20.7152 77.0956 19.7425C77.0956 18.7935 76.7753 17.9987 76.1347 17.3581C75.4942 16.6938 74.7113 16.3617 73.786 16.3617C72.837 16.3617 72.0304 16.682 71.3661 17.3226C70.7255 17.9631 70.4052 18.7698 70.4052 19.7425ZM81.173 12.6606H85.5146L89.1801 23.2656H89.3936L93.0947 12.6606H97.3296L92.1338 26.8955H86.3331L81.173 12.6606ZM101.395 12.6606H106.484L112 26.8955H107.622L106.733 24.2976H100.968L100.042 26.8955H95.8431L101.395 12.6606ZM105.63 21.0948L103.993 16.3261H103.779L102.106 21.0948H105.63ZM125.49 27.109C124.043 27.109 122.738 26.8006 121.576 26.1838C120.437 25.5669 119.547 24.7128 118.907 23.6215C118.266 22.5064 117.946 21.2253 117.946 19.7781C117.946 18.3783 118.278 17.1209 118.942 16.0058C119.607 14.8908 120.52 14.0248 121.683 13.408C122.869 12.7674 124.197 12.4471 125.668 12.4471C127.353 12.4471 128.8 12.8504 130.01 13.6571C131.22 14.44 131.991 15.4839 132.323 16.7887H127.448C126.926 16.3854 126.297 16.1838 125.562 16.1838C124.494 16.1838 123.628 16.5159 122.964 17.1802C122.323 17.8208 122.003 18.6867 122.003 19.7781C122.003 20.9169 122.335 21.8421 122.999 22.5539C123.687 23.2656 124.577 23.6215 125.668 23.6215C126.451 23.6215 127.127 23.4554 127.697 23.1233C128.266 22.7911 128.681 22.3285 128.942 21.7354H125.17V18.5325H132.537V26.8955H129.156V26.0414H129.013C128.112 26.7532 126.938 27.109 125.49 27.109ZM135.4 12.6606H139.457V22.9097H146.717V26.8955H135.4V12.6606ZM154.17 27.109C152.77 27.109 151.501 26.7887 150.362 26.1482C149.223 25.4839 148.322 24.5942 147.658 23.4791C146.993 22.3641 146.661 21.1185 146.661 19.7425C146.661 18.3902 146.993 17.1565 147.658 16.0414C148.322 14.9264 149.223 14.0485 150.362 13.408C151.501 12.7674 152.77 12.4471 154.17 12.4471C155.546 12.4471 156.803 12.7674 157.942 13.408C159.081 14.0485 159.971 14.9264 160.611 16.0414C161.276 17.1565 161.608 18.3902 161.608 19.7425C161.608 21.1185 161.276 22.3641 160.611 23.4791C159.971 24.5942 159.081 25.4839 157.942 26.1482C156.803 26.7887 155.546 27.109 154.17 27.109ZM150.789 19.7425C150.789 20.7152 151.11 21.5337 151.75 22.198C152.414 22.8623 153.221 23.1944 154.17 23.1944C155.095 23.1944 155.878 22.8623 156.519 22.198C157.159 21.5337 157.48 20.7152 157.48 19.7425C157.48 18.7935 157.159 17.9987 156.519 17.3581C155.878 16.6938 155.095 16.3617 154.17 16.3617C153.221 16.3617 152.414 16.682 151.75 17.3226C151.11 17.9631 150.789 18.7698 150.789 19.7425ZM163.862 12.6606H171.904C173.304 12.6606 174.419 13.0284 175.249 13.7638C176.104 14.4756 176.531 15.4246 176.531 16.6108C176.531 17.9157 175.997 18.9003 174.929 19.5645C176.21 20.2763 176.851 21.3558 176.851 22.803C176.851 24.0367 176.4 25.0331 175.499 25.7923C174.597 26.5278 173.399 26.8955 171.904 26.8955H163.862V12.6606ZM171.335 23.6215C171.738 23.6215 172.07 23.5147 172.331 23.3012C172.592 23.0877 172.723 22.803 172.723 22.4471C172.723 22.0912 172.592 21.8065 172.331 21.593C172.07 21.3795 171.738 21.2727 171.335 21.2727H167.776V23.6215H171.335ZM171.05 18.2122C171.453 18.2122 171.774 18.1055 172.011 17.8919C172.272 17.6784 172.402 17.4056 172.402 17.0734C172.402 16.7413 172.272 16.4685 172.011 16.2549C171.774 16.0414 171.453 15.9347 171.05 15.9347H167.776V18.2122H171.05ZM182.775 12.6606H187.864L193.38 26.8955H189.003L188.113 24.2976H182.348L181.423 26.8955H177.223L182.775 12.6606ZM187.01 21.0948L185.373 16.3261H185.159L183.487 21.0948H187.01ZM194.921 12.6606H198.977V22.9097H206.237V26.8955H194.921V12.6606Z" fill="#DA292B"/>
</svg>
