<svg width="113" height="38" viewBox="0 0 113 38" fill="none" xmlns="http://www.w3.org/2000/svg">
<g clip-path="url(#clip0_26278_130775)">
<path d="M20.1573 11.5181H12.0024V26.0628H20.1573V11.5181Z" fill="#FF5F00"/>
<path d="M30.2692 24.5224V24.2246H30.3901V24.1639H30.082V24.2246H30.2031V24.5224H30.2692ZM30.8673 24.5224V24.1633H30.7729L30.6642 24.4103L30.5556 24.1633H30.4611V24.5224H30.5278V24.2515L30.6296 24.485H30.6988L30.8007 24.2509V24.5224H30.8673Z" fill="#F79E1B"/>
<path d="M12.5201 18.7905C12.5188 17.3898 12.8386 16.0071 13.4553 14.7471C14.072 13.4872 14.9695 12.383 16.0797 11.5182C14.7048 10.4456 13.0537 9.77858 11.3149 9.59336C9.57614 9.40813 7.81995 9.71217 6.24707 10.4707C4.67418 11.2293 3.34806 12.4118 2.42028 13.883C1.4925 15.3543 1.00049 17.0549 1.00049 18.7905C1.00049 20.5262 1.4925 22.2268 2.42028 23.698C3.34806 25.1693 4.67418 26.3518 6.24707 27.1103C7.81995 27.8689 9.57614 28.1729 11.3149 27.9877C13.0537 27.8025 14.7048 27.1355 16.0797 26.0629C14.9695 25.1981 14.072 24.0939 13.4553 22.8339C12.8386 21.574 12.5188 20.1913 12.5201 18.7905Z" fill="#EB001B"/>
<path d="M31.1583 18.7905C31.1584 20.5262 30.6665 22.2268 29.7387 23.698C28.811 25.1692 27.4849 26.3517 25.9121 27.1103C24.3392 27.8689 22.583 28.1729 20.8443 27.9877C19.1056 27.8025 17.4544 27.1355 16.0796 26.0629C17.1888 25.1972 18.0856 24.0928 18.7022 22.8331C19.3188 21.5733 19.6392 20.1911 19.6392 18.7905C19.6392 17.39 19.3188 16.0077 18.7022 14.748C18.0856 13.4882 17.1888 12.3839 16.0796 11.5182C17.4544 10.4456 19.1056 9.77858 20.8443 9.59335C22.583 9.40813 24.3392 9.71219 25.9121 10.4708C27.4849 11.2293 28.811 12.4118 29.7387 13.8831C30.6665 15.3543 31.1584 17.0549 31.1583 18.7905Z" fill="#F79E1B"/>
<path d="M40.6512 28.0924H40.3062V24.9713V18.7286V12.4859V9.36475H40.6512V15.6072V21.8499V28.0924Z" fill="black"/>
<path d="M50.2024 24.5225H49.2339V13.4911H50.2024V24.5225ZM57.2682 13.4911C58.1177 13.479 58.9633 13.6095 59.769 13.8771C60.4692 14.1106 61.1127 14.4863 61.6586 14.9803C62.1818 15.465 62.5911 16.0582 62.8572 16.7177C63.4184 18.1929 63.4184 19.8206 62.8572 21.2958C62.5911 21.9553 62.1819 22.5485 61.6586 23.0333C61.1128 23.5273 60.4692 23.903 59.769 24.1364C58.9633 24.4041 58.1177 24.5346 57.2682 24.5225H53.2112V13.4911H57.2682ZM54.1797 14.405V23.6085H57.2682C57.9962 23.6213 58.7212 23.5107 59.4118 23.2814C59.9931 23.086 60.5262 22.7705 60.9757 22.3557C61.4027 21.951 61.7312 21.4551 61.9364 20.9057C62.3702 19.6763 62.3702 18.3371 61.9364 17.1077C61.7306 16.5575 61.4022 16.0606 60.9757 15.654C60.5275 15.2374 59.9941 14.9216 59.4118 14.7281C58.7206 14.5016 57.9959 14.3924 57.2682 14.4051L54.1797 14.405ZM74.5355 13.365C75.0007 13.3637 75.4644 13.4166 75.9172 13.5226C76.3506 13.6236 76.7703 13.7757 77.1673 13.9756C77.5487 14.1674 77.9036 14.4071 78.2233 14.6887C78.5358 14.9644 78.8071 15.2828 79.0291 15.6343L78.2193 16.17C78.0289 15.8813 77.8007 15.619 77.5405 15.3901C77.2777 15.1584 76.987 14.9598 76.6751 14.799C76.3531 14.6336 76.0118 14.5079 75.659 14.4248C75.291 14.3375 74.9139 14.2938 74.5355 14.2948C73.9041 14.2893 73.2774 14.4043 72.6897 14.6335C72.1343 14.8507 71.6292 15.1778 71.2052 15.5949C70.7773 16.0204 70.4399 16.5269 70.2129 17.0842C69.7312 18.3213 69.7312 19.6922 70.2129 20.9294C70.4399 21.4867 70.7773 21.9931 71.2052 22.4186C71.6291 22.8357 72.1342 23.1628 72.6897 23.3799C73.2774 23.6093 73.904 23.7244 74.5355 23.7188C74.9123 23.7199 75.288 23.6776 75.655 23.5927C76.0067 23.5117 76.3468 23.3873 76.6673 23.2223C76.9792 23.0616 77.2699 22.8631 77.5326 22.6314C77.7942 22.4008 78.0226 22.1357 78.2115 21.8434L79.0053 22.4186C78.7741 22.7633 78.4978 23.076 78.1837 23.3484C77.8648 23.6242 77.5128 23.8598 77.1357 24.0498C76.7438 24.247 76.3293 24.3965 75.9012 24.4949C74.6936 24.7678 73.4314 24.6758 72.2768 24.2309C71.6029 23.9667 70.9888 23.5716 70.4707 23.0687C69.9553 22.5613 69.5488 21.9555 69.2759 21.2879C68.6992 19.8224 68.6992 18.1951 69.2759 16.7296C69.5482 16.0604 69.9547 15.4532 70.4707 14.9448C70.9888 14.4419 71.6029 14.0468 72.2768 13.7825C72.9955 13.5 73.7625 13.3582 74.5355 13.365ZM82.0062 18.3921C82.1481 18.1582 82.3232 17.9459 82.5263 17.7618C82.72 17.5864 82.9379 17.4392 83.1732 17.3244C83.4056 17.2117 83.6509 17.127 83.9036 17.0723C84.1539 17.0176 84.4095 16.9898 84.6659 16.9895C85.1009 16.9846 85.5336 17.0552 85.9441 17.1983C86.3135 17.3274 86.6525 17.5298 86.9404 17.7932C87.2221 18.0563 87.4417 18.3778 87.5836 18.7348C87.739 19.1302 87.8158 19.5516 87.8099 19.9759V24.5225H86.9048V20.2518C86.9096 19.9091 86.8559 19.568 86.746 19.2431C86.649 18.9581 86.4889 18.6983 86.2775 18.4828C86.0644 18.271 85.8069 18.1082 85.5234 18.006C85.1974 17.8908 84.8531 17.8347 84.5071 17.8406C84.1719 17.8379 83.8393 17.8981 83.5267 18.0178C83.2304 18.1309 82.9603 18.3025 82.7328 18.5222C82.5048 18.7443 82.3239 19.0095 82.2009 19.3022C82.0683 19.6178 82.0021 19.957 82.0062 20.299V24.5225H81.1011V13.1758H82.0062L82.0062 18.3921ZM93.1926 16.9895C93.669 16.9853 94.1409 17.0807 94.5778 17.2693C94.9962 17.4504 95.3721 17.716 95.6813 18.0493C96.0006 18.3986 96.2499 18.8051 96.4158 19.2471C96.5999 19.7346 96.694 20.2511 96.6936 20.7718C96.6936 20.8401 96.6923 20.9046 96.6898 20.9648C96.687 21.0253 96.6831 21.0844 96.6779 21.1422H90.4139C90.4371 21.5402 90.5354 21.9304 90.7036 22.2925C90.8554 22.6159 91.0699 22.9064 91.3349 23.1474C91.5943 23.3814 91.8978 23.5622 92.2278 23.6794C92.573 23.8017 92.9371 23.863 93.3036 23.8605C93.7873 23.8689 94.267 23.7721 94.709 23.5769C95.1245 23.3861 95.5032 23.1247 95.8282 22.8047L96.3126 23.4193C96.0922 23.6413 95.8487 23.8394 95.5863 24.0103C95.3494 24.1633 95.0964 24.2901 94.8318 24.3885C94.5792 24.4821 94.317 24.5481 94.0499 24.5855C93.7843 24.6223 93.5164 24.6408 93.2482 24.6407C92.7318 24.646 92.2193 24.551 91.7396 24.3609C91.2927 24.1834 90.8874 23.9165 90.5489 23.5769C90.2096 23.2318 89.9448 22.8215 89.7707 22.3713C89.5803 21.8759 89.4861 21.3492 89.4929 20.819C89.4873 20.2924 89.583 19.7696 89.7748 19.2786C89.9507 18.827 90.2151 18.4146 90.5527 18.0651C90.886 17.7245 91.2859 17.4551 91.7278 17.2732C92.1918 17.0819 92.6901 16.9854 93.1926 16.9895ZM93.1767 17.7853C92.8192 17.781 92.4644 17.8466 92.1325 17.9784C91.8242 18.1031 91.5427 18.2849 91.3031 18.5143C91.0604 18.7488 90.8627 19.0251 90.7196 19.3298C90.565 19.658 90.467 20.0096 90.4298 20.37H95.7728C95.7462 20.0071 95.6576 19.6513 95.5107 19.318C95.3772 19.0138 95.1873 18.7371 94.9509 18.5025C94.7176 18.2725 94.4407 18.0907 94.1361 17.9676C93.8316 17.8445 93.5055 17.7826 93.1767 17.7853ZM101.901 16.9895C102.431 16.9845 102.956 17.085 103.446 17.285C103.909 17.4751 104.323 17.7675 104.656 18.14L104.069 18.7468C103.787 18.464 103.454 18.2356 103.088 18.073C102.706 17.9089 102.294 17.8269 101.878 17.8326C101.486 17.8294 101.099 17.9059 100.738 18.0572C100.394 18.2018 100.082 18.4135 99.8214 18.6798C99.5577 18.9518 99.3512 19.2732 99.2139 19.6252C98.923 20.3949 98.923 21.2431 99.2139 22.0128C99.3485 22.3616 99.553 22.6798 99.8151 22.948C100.077 23.2161 100.391 23.4288 100.738 23.573C101.099 23.7244 101.486 23.8008 101.878 23.7976C102.3 23.8022 102.718 23.7162 103.104 23.5454C103.471 23.3818 103.805 23.155 104.093 22.8757L104.656 23.4903C104.32 23.8613 103.905 24.1533 103.442 24.3452C102.452 24.7378 101.348 24.7392 100.357 24.3491C99.9034 24.166 99.492 23.8931 99.148 23.547C98.8041 23.2009 98.5348 22.7888 98.3566 22.3359C97.9808 21.3577 97.9808 20.2765 98.3566 19.2983C98.5339 18.8444 98.8028 18.4313 99.1468 18.0844C99.4908 17.7375 99.9027 17.4642 100.357 17.2811C100.847 17.0826 101.372 16.9835 101.901 16.9895ZM107.379 20.236H108.594L111.738 17.1077H112.881L109.324 20.6063L112.944 24.5225H111.793L108.594 21.0476H107.379V24.5225H106.474V13.1758H107.379V20.236Z" fill="black"/>
</g>
<defs>
<clipPath id="clip0_26278_130775">
<rect width="112" height="37" fill="white" transform="translate(0.5 0.290527)"/>
</clipPath>
</defs>
</svg>
